<?xml version="1.0" encoding="UTF-8" standalone="no"?>
<!DOCTYPE svg PUBLIC "-//W3C//DTD SVG 1.1//EN"
 "http://www.w3.org/Graphics/SVG/1.1/DTD/svg11.dtd">
<!-- Generated by graphviz version 7.0.4 (20221203.1631)
 -->
<!-- Title: dependency&#45;cruiser output Pages: 1 -->
<svg width="125pt" height="110pt"
 viewBox="0.00 0.00 125.00 110.00" xmlns="http://www.w3.org/2000/svg" xmlns:xlink="http://www.w3.org/1999/xlink">
<g id="graph0" class="graph" transform="scale(1 1) rotate(0) translate(4 106)">
<title>dependency&#45;cruiser output</title>
<polygon fill="white" stroke="none" points="-4,4 -4,-106 121,-106 121,4 -4,4"/>
<g id="clust1" class="cluster">
<title>cluster_src</title>
<path fill="#ffffff" stroke="black" stroke-width="2" d="M20,-8C20,-8 97,-8 97,-8 103,-8 109,-14 109,-20 109,-20 109,-82 109,-82 109,-88 103,-94 97,-94 97,-94 20,-94 20,-94 14,-94 8,-88 8,-82 8,-82 8,-20 8,-20 8,-14 14,-8 20,-8"/>
<text text-anchor="middle" x="58.5" y="-82.8" font-family="Helvetica,sans-Serif" font-weight="bold" font-size="9.00">src</text>
</g>
<g id="clust2" class="cluster">
<title>cluster_src/routes</title>
<path fill="#ffffff" stroke="black" stroke-width="2" d="M28,-16C28,-16 89,-16 89,-16 95,-16 101,-22 101,-28 101,-28 101,-56 101,-56 101,-62 95,-68 89,-68 89,-68 28,-68 28,-68 22,-68 16,-62 16,-56 16,-56 16,-28 16,-28 16,-22 22,-16 28,-16"/>
<text text-anchor="middle" x="58.5" y="-56.8" font-family="Helvetica,sans-Serif" font-weight="bold" font-size="9.00">routes</text>
</g>
<!-- src/routes/+page.svelte -->
<g id="node1" class="node">
<title>src/routes/+page.svelte</title>
<g id="a_node1"><a xlink:href="src/routes/+page.svelte" xlink:title="+page.svelte">
<path fill="#ccffcc" stroke="black" d="M87,-42C87,-42 30,-42 30,-42 27,-42 24,-39 24,-36 24,-36 24,-30 24,-30 24,-27 27,-24 30,-24 30,-24 87,-24 87,-24 90,-24 93,-27 93,-30 93,-30 93,-36 93,-36 93,-39 90,-42 87,-42"/>
<text text-anchor="start" x="32" y="-30.8" font-family="Helvetica,sans-Serif" font-size="9.00">+page.svelte</text>
</a>
</g>
</g>
</g>
</svg>
